<svg width="313" height="214" viewBox="0 0 313 214" xmlns="http://www.w3.org/2000/svg"><title>Group 7</title><g fill="none" fill-rule="evenodd"><g transform="translate(73)"><rect fill="#F9BF3B" transform="rotate(-85 30.65 111.07)" x="-71.638" y="99.393" width="204.576" height="23.354" rx="5"/><path d="M5.04 196.726c-.17 1.935 1.31 3.646 3.304 3.82l14.445 1.264c1.994.174 3.748-1.253 3.918-3.188L43.26 9.414c.17-1.936-1.31-3.646-3.304-3.82L25.51 4.33c-1.995-.174-3.749 1.253-3.918 3.188L5.039 196.726zm-3.612-.316L17.982 7.202c.338-3.87 3.846-6.725 7.835-6.376L40.262 2.09c3.989.349 6.948 3.77 6.61 7.64L30.317 198.938c-.339 3.87-3.847 6.725-7.836 6.376L8.037 204.05c-3.988-.35-6.947-3.77-6.609-7.64z" fill="#000" fill-rule="nonzero"/><circle fill="#000" transform="rotate(5 24.233 100.66)" cx="24.233" cy="100.661" r="3"/><circle fill="#000" transform="rotate(5 31.075 90.438)" cx="31.075" cy="90.438" r="2.5"/><circle fill="#000" transform="rotate(5 29.157 112.354)" cx="29.157" cy="112.354" r="2.5"/><circle fill="#000" transform="rotate(5 19.12 89.392)" cx="19.12" cy="89.392" r="2.5"/><circle fill="#000" transform="rotate(5 17.203 111.308)" cx="17.203" cy="111.308" r="2.5"/></g><g transform="translate(123)"><rect fill="#5DC0F6" transform="rotate(-81 37 109.5)" x="-65.233" y="97.823" width="204.465" height="23.354" rx="5"/><path d="M5.403 195.595c-.304 1.919 1.053 3.728 3.03 4.041l14.322 2.268c1.977.314 3.826-.988 4.13-2.906L56.597 11.405c.304-1.919-1.053-3.728-3.03-4.041L39.245 5.096c-1.977-.314-3.826.988-4.13 2.906L5.403 195.595zm-3.58-.567L31.534 7.435c.608-3.837 4.307-6.44 8.262-5.813L54.117 3.89c3.955.626 6.668 4.245 6.06 8.082L30.466 199.565c-.608 3.837-4.307 6.44-8.262 5.813L7.883 203.11c-3.955-.626-6.668-4.245-6.06-8.082z" fill="#000" fill-rule="nonzero"/><circle fill="#000" transform="rotate(9 31 102)" cx="31" cy="102" r="3"/></g><g transform="translate(258)"><rect fill="#EDE6E3" transform="rotate(-84 32.69 111.381)" x="-68.239" y="99.681" width="201.857" height="23.4" rx="5"/><path d="M4.448 197.19c-.203 1.931 1.246 3.667 3.237 3.876l14.42 1.516c1.992.21 3.77-1.187 3.973-3.119l19.854-188.89c.203-1.932-1.247-3.668-3.238-3.877L28.274 5.18c-1.991-.21-3.77 1.187-3.973 3.119L4.448 197.189zm-3.606-.38L20.696 7.92c.406-3.864 3.963-6.657 7.945-6.238l14.42 1.516c3.983.418 6.882 3.89 6.476 7.753L29.684 199.842c-.406 3.864-3.964 6.657-7.946 6.238l-14.42-1.516c-3.983-.418-6.882-3.89-6.476-7.753z" fill="#000" fill-rule="nonzero"/><circle fill="#000" transform="rotate(6 31.976 86.263)" cx="31.976" cy="86.263" r="2.5"/><circle fill="#000" transform="rotate(6 22.03 85.218)" cx="22.03" cy="85.218" r="2.5"/><circle fill="#000" transform="rotate(6 30.721 98.197)" cx="30.721" cy="98.197" r="2.5"/><circle fill="#000" transform="rotate(6 20.776 97.152)" cx="20.776" cy="97.152" r="2.5"/><circle fill="#000" transform="rotate(6 29.362 111.126)" cx="29.362" cy="111.126" r="2.5"/><circle fill="#000" transform="rotate(6 28.108 123.06)" cx="28.108" cy="123.06" r="2.5"/><circle fill="#000" transform="rotate(6 19.417 110.08)" cx="19.417" cy="110.081" r="2.5"/><circle fill="#000" transform="rotate(6 18.163 122.015)" cx="18.163" cy="122.015" r="2.5"/></g><g transform="translate(196 1)"><rect fill="#3DE884" transform="rotate(-94 30.478 109.79)" x="-71.282" y="98.114" width="203.519" height="23.354" rx="5"/><path d="M17.483 198.597c.135 1.937 1.864 3.395 3.861 3.255l14.465-1.011c1.997-.14 3.506-1.824 3.37-3.762L25.932 7.611c-.136-1.938-1.865-3.395-3.862-3.256L7.605 5.367c-1.998.14-3.507 1.824-3.371 3.761l13.249 189.469zm-3.616.253L.617 9.38C.348 5.506 3.366 2.137 7.36 1.858L21.824.847c3.994-.28 7.452 2.636 7.723 6.511l13.249 189.469c.27 3.875-2.747 7.243-6.742 7.523L21.59 205.36c-3.995.28-7.452-2.636-7.723-6.511z" fill="#000" fill-rule="nonzero"/><circle fill="#000" transform="rotate(-4 22.206 103.069)" cx="22.206" cy="103.069" r="2.5"/><circle fill="#000" transform="rotate(-4 22.833 112.047)" cx="22.833" cy="112.047" r="2.5"/><circle fill="#000" transform="rotate(-4 23.531 122.023)" cx="23.531" cy="122.023" r="2.5"/><circle fill="#000" transform="rotate(-4 21.508 93.093)" cx="21.508" cy="93.093" r="2.5"/><circle fill="#000" transform="rotate(-4 20.88 84.115)" cx="20.88" cy="84.115" r="2.5"/></g><g transform="translate(-1 1)"><rect fill="#F77252" transform="rotate(-97 34.794 109.624)" x="-67.044" y="97.924" width="203.676" height="23.4" rx="5"/><path d="M28.573 198.707c.237 1.928 2.04 3.293 4.027 3.05l14.392-1.768c1.987-.244 3.406-2.004 3.169-3.932L27.014 7.54c-.237-1.928-2.04-3.293-4.027-3.049L8.596 6.259c-1.988.244-3.407 2.005-3.17 3.933l23.147 188.515zm-3.598.442L1.828 10.634c-.473-3.856 2.365-7.378 6.339-7.866l14.392-1.767c3.974-.488 7.58 2.242 8.053 6.098L53.76 195.615c.473 3.856-2.365 7.377-6.339 7.865l-14.392 1.768c-3.974.487-7.58-2.243-8.053-6.099z" fill="#000" fill-rule="nonzero"/><circle fill="#000" transform="rotate(-7 27.634 101.348)" cx="27.634" cy="101.348" r="3.5"/><path d="M24.04 72.068a4.5 4.5 0 1 0-1.098-8.933 4.5 4.5 0 0 0 1.097 8.933zM32.692 142.539a4.5 4.5 0 1 0-1.097-8.933 4.5 4.5 0 0 0 1.097 8.933z" fill="#000"/><circle fill="#000" transform="rotate(-7 32.371 90.691)" cx="32.371" cy="90.691" r="2.5"/><circle fill="#000" transform="rotate(-7 25.563 84.475)" cx="25.563" cy="84.475" r="2.5"/><circle fill="#000" transform="rotate(-7 20.46 92.154)" cx="20.46" cy="92.154" r="2.5"/><circle fill="#000" transform="rotate(-7 29.828 119.214)" cx="29.828" cy="119.214" r="2.5"/><circle fill="#000" transform="rotate(-7 34.93 111.535)" cx="34.93" cy="111.535" r="2.5"/><circle fill="#000" transform="rotate(-7 23.02 112.997)" cx="23.02" cy="112.997" r="2.5"/></g></g></svg>